<svg
 xmlns="http://www.w3.org/2000/svg"
 xmlns:xlink="http://www.w3.org/1999/xlink"
 width="10px" height="12px">
<path fill-rule="evenodd"  fill="rgb(255, 255, 255)"
 d="M9.756,5.693 C9.594,5.534 9.397,5.454 9.166,5.454 L8.888,5.454 L8.888,3.818 C8.888,2.772 8.506,1.874 7.743,1.124 C6.979,0.374 6.065,-0.001 5.000,-0.001 C3.935,-0.001 3.021,0.374 2.257,1.124 C1.494,1.874 1.112,2.772 1.112,3.818 L1.112,5.454 L0.834,5.454 C0.603,5.454 0.406,5.534 0.244,5.693 C0.082,5.852 0.001,6.045 0.001,6.273 L0.001,11.183 C0.001,11.410 0.082,11.604 0.244,11.763 C0.406,11.922 0.603,12.002 0.834,12.002 L9.166,12.002 C9.397,12.002 9.594,11.922 9.756,11.763 C9.918,11.604 9.999,11.410 9.999,11.183 L9.999,6.273 C9.999,6.046 9.918,5.852 9.756,5.693 ZM7.222,5.454 L2.778,5.454 L2.778,3.818 C2.778,3.215 2.995,2.701 3.429,2.275 C3.863,1.848 4.387,1.635 5.000,1.635 C5.613,1.635 6.137,1.848 6.571,2.275 C7.005,2.701 7.222,3.215 7.222,3.818 L7.222,5.454 Z"/>
</svg>
