<svg
 xmlns="http://www.w3.org/2000/svg"
 xmlns:xlink="http://www.w3.org/1999/xlink"
 width="195px" height="14px">
<path fill-rule="evenodd"  fill="rgb(255, 255, 255)"
 d="M194.766,5.064 L194.344,5.064 L194.361,3.553 L194.361,2.270 L194.959,2.270 L194.959,3.535 L194.766,5.064 ZM192.943,5.064 L192.955,3.570 L192.955,2.270 L193.553,2.270 L193.553,3.535 L193.359,5.064 L192.943,5.064 ZM189.270,11.410 L188.672,11.410 L187.260,7.074 L186.984,5.979 L186.949,5.979 L186.674,7.074 L185.285,11.410 L184.687,11.410 L183.012,5.639 L182.396,5.592 L182.396,5.070 L184.523,5.070 L184.523,5.592 L183.727,5.656 L184.752,9.354 L184.992,10.484 L185.027,10.484 L185.326,9.354 L186.680,5.070 L187.277,5.070 L188.631,9.354 L188.936,10.514 L188.971,10.514 L189.234,9.354 L190.230,5.656 L189.434,5.592 L189.434,5.070 L191.566,5.070 L191.566,5.592 L190.951,5.639 L189.270,11.410 ZM178.699,11.533 C177.848,11.533 177.166,11.235 176.654,10.640 C176.143,10.044 175.887,9.277 175.887,8.340 L175.887,8.146 C175.887,7.213 176.143,6.447 176.654,5.850 C177.166,5.252 177.844,4.953 178.687,4.953 C179.535,4.953 180.215,5.252 180.727,5.850 C181.238,6.447 181.494,7.213 181.494,8.146 L181.494,8.340 C181.494,9.277 181.239,10.044 180.729,10.640 C180.220,11.235 179.543,11.533 178.699,11.533 ZM180.791,8.146 C180.791,7.424 180.604,6.811 180.231,6.307 C179.858,5.803 179.344,5.551 178.687,5.551 C178.031,5.551 177.518,5.803 177.146,6.307 C176.775,6.811 176.590,7.424 176.590,8.146 L176.590,8.340 C176.590,9.074 176.775,9.691 177.146,10.191 C177.518,10.691 178.035,10.941 178.699,10.941 C179.352,10.941 179.863,10.691 180.234,10.191 C180.605,9.691 180.791,9.074 180.791,8.340 L180.791,8.146 ZM178.137,4.215 L179.344,2.656 L180.205,2.656 L180.223,2.691 L178.764,4.215 L178.137,4.215 ZM172.687,10.895 L173.355,10.854 L171.152,8.322 L170.338,8.322 L170.338,10.818 L171.293,10.895 L171.293,11.410 L168.686,11.410 L168.686,10.895 L169.641,10.818 L169.641,2.867 L168.686,2.791 L168.686,2.270 L170.338,2.270 L170.338,7.719 L171.082,7.719 L173.010,5.662 L172.998,5.633 L172.418,5.592 L172.418,5.070 L174.650,5.070 L174.650,5.592 L173.912,5.662 L171.744,7.965 L174.211,10.830 L174.914,10.895 L174.914,11.410 L172.687,11.410 L172.687,10.895 ZM165.176,10.895 L166.131,10.818 L166.131,2.867 L165.176,2.791 L165.176,2.270 L166.828,2.270 L166.828,10.818 L167.783,10.895 L167.783,11.410 L165.176,11.410 L165.176,10.895 ZM159.586,8.428 C159.586,9.139 159.776,9.735 160.157,10.218 C160.538,10.700 161.037,10.941 161.654,10.941 C162.088,10.941 162.459,10.881 162.768,10.760 C163.076,10.639 163.340,10.465 163.559,10.238 L163.857,10.719 C163.619,10.969 163.318,11.167 162.955,11.313 C162.592,11.460 162.158,11.533 161.654,11.533 C160.857,11.533 160.197,11.241 159.674,10.657 C159.150,10.073 158.889,9.330 158.889,8.428 L158.889,8.105 C158.889,7.199 159.149,6.447 159.671,5.850 C160.192,5.252 160.822,4.953 161.561,4.953 C162.338,4.953 162.949,5.199 163.395,5.691 C163.840,6.184 164.062,6.840 164.062,7.660 L164.062,8.258 L159.586,8.258 L159.586,8.428 ZM159.650,7.666 L163.365,7.666 L163.365,7.490 C163.365,6.939 163.203,6.479 162.879,6.107 C162.555,5.736 162.115,5.551 161.561,5.551 C161.045,5.551 160.610,5.749 160.257,6.146 C159.903,6.542 159.697,7.039 159.639,7.637 L159.650,7.666 ZM154.717,11.533 C153.623,11.533 152.728,11.128 152.033,10.317 C151.338,9.507 150.990,8.469 150.990,7.203 L150.990,7.092 C150.990,5.822 151.337,4.782 152.030,3.972 C152.724,3.161 153.631,2.756 154.752,2.756 C155.385,2.756 155.950,2.880 156.448,3.128 C156.946,3.376 157.328,3.684 157.594,4.051 L157.594,5.551 L157.049,5.551 L156.949,4.256 C156.723,3.986 156.428,3.769 156.064,3.603 C155.701,3.437 155.281,3.354 154.805,3.354 C153.852,3.354 153.094,3.700 152.531,4.394 C151.969,5.087 151.688,5.982 151.688,7.080 L151.688,7.203 C151.688,8.301 151.966,9.198 152.522,9.896 C153.079,10.593 153.811,10.941 154.717,10.941 C155.197,10.941 155.634,10.857 156.026,10.689 C156.419,10.522 156.727,10.305 156.949,10.039 L157.049,8.744 L157.594,8.744 L157.594,10.244 C157.328,10.611 156.940,10.918 156.431,11.164 C155.921,11.410 155.350,11.533 154.717,11.533 ZM148.594,5.064 L148.611,3.553 L148.611,2.270 L149.209,2.270 L149.209,3.535 L149.016,5.064 L148.594,5.064 ZM147.193,5.064 L147.205,3.570 L147.205,2.270 L147.803,2.270 L147.803,3.535 L147.609,5.064 L147.193,5.064 ZM141.311,10.367 C141.111,10.738 140.839,11.025 140.493,11.229 C140.147,11.432 139.740,11.533 139.271,11.533 C138.604,11.533 138.081,11.307 137.704,10.854 C137.327,10.400 137.139,9.697 137.139,8.744 L137.139,5.668 L136.354,5.592 L136.354,5.070 L137.139,5.070 L137.836,5.070 L137.836,8.756 C137.836,9.529 137.968,10.084 138.231,10.420 C138.495,10.756 138.869,10.924 139.354,10.924 C139.885,10.924 140.308,10.807 140.622,10.572 C140.936,10.338 141.158,10.014 141.287,9.600 L141.287,5.668 L140.385,5.592 L140.385,5.070 L141.287,5.070 L141.990,5.070 L141.990,10.818 L142.840,10.895 L142.840,11.410 L141.375,11.410 L141.311,10.367 ZM132.937,10.895 L133.893,10.818 L133.893,7.555 C133.893,6.828 133.757,6.315 133.485,6.014 C133.214,5.713 132.828,5.563 132.328,5.563 C131.836,5.563 131.435,5.692 131.124,5.952 C130.813,6.212 130.590,6.557 130.453,6.986 L130.453,10.818 L131.408,10.895 L131.408,11.410 L128.795,11.410 L128.795,10.895 L129.750,10.818 L129.750,5.668 L128.795,5.592 L128.795,5.070 L130.371,5.070 L130.436,6.178 C130.639,5.787 130.913,5.485 131.259,5.272 C131.604,5.060 132.014,4.953 132.486,4.953 C133.174,4.953 133.697,5.163 134.057,5.583 C134.416,6.003 134.596,6.658 134.596,7.549 L134.596,10.818 L135.551,10.895 L135.551,11.410 L132.937,11.410 L132.937,10.895 ZM124.986,11.533 C124.135,11.533 123.453,11.235 122.941,10.640 C122.430,10.044 122.174,9.277 122.174,8.340 L122.174,8.146 C122.174,7.213 122.430,6.447 122.941,5.850 C123.453,5.252 124.131,4.953 124.975,4.953 C125.822,4.953 126.502,5.252 127.014,5.850 C127.525,6.447 127.781,7.213 127.781,8.146 L127.781,8.340 C127.781,9.277 127.526,10.044 127.017,10.640 C126.507,11.235 125.830,11.533 124.986,11.533 ZM127.078,8.146 C127.078,7.424 126.892,6.811 126.519,6.307 C126.145,5.803 125.631,5.551 124.975,5.551 C124.318,5.551 123.805,5.803 123.434,6.307 C123.062,6.811 122.877,7.424 122.877,8.146 L122.877,8.340 C122.877,9.074 123.062,9.691 123.434,10.191 C123.805,10.691 124.322,10.941 124.986,10.941 C125.639,10.941 126.150,10.691 126.521,10.191 C126.893,9.691 127.078,9.074 127.078,8.340 L127.078,8.146 ZM118.893,13.971 C118.771,13.971 118.659,13.961 118.556,13.941 C118.452,13.922 118.346,13.895 118.236,13.859 L118.312,13.268 C118.371,13.287 118.454,13.307 118.562,13.326 C118.669,13.346 118.766,13.355 118.852,13.355 C119.203,13.355 119.477,13.235 119.672,12.995 C119.867,12.755 119.965,12.400 119.965,11.932 L119.965,5.668 L119.010,5.592 L119.010,5.070 L120.668,5.070 L120.668,11.932 C120.668,12.584 120.512,13.087 120.199,13.440 C119.887,13.794 119.451,13.971 118.893,13.971 ZM119.930,2.270 L120.633,2.270 L120.633,3.230 L119.930,3.230 L119.930,2.270 ZM113.150,8.428 C113.150,9.139 113.341,9.735 113.722,10.218 C114.103,10.700 114.602,10.941 115.219,10.941 C115.652,10.941 116.023,10.881 116.332,10.760 C116.641,10.639 116.904,10.465 117.123,10.238 L117.422,10.719 C117.184,10.969 116.883,11.167 116.520,11.313 C116.156,11.460 115.723,11.533 115.219,11.533 C114.422,11.533 113.762,11.241 113.238,10.657 C112.715,10.073 112.453,9.330 112.453,8.428 L112.453,8.105 C112.453,7.199 112.714,6.447 113.235,5.850 C113.757,5.252 114.387,4.953 115.125,4.953 C115.902,4.953 116.514,5.199 116.959,5.691 C117.404,6.184 117.627,6.840 117.627,7.660 L117.627,8.258 L113.150,8.258 L113.150,8.428 ZM113.215,7.666 L116.930,7.666 L116.930,7.490 C116.930,6.939 116.768,6.479 116.443,6.107 C116.119,5.736 115.680,5.551 115.125,5.551 C114.609,5.551 114.175,5.749 113.821,6.146 C113.468,6.542 113.262,7.039 113.203,7.637 L113.215,7.666 ZM111.012,5.639 C110.570,5.639 110.208,5.763 109.925,6.011 C109.642,6.259 109.439,6.600 109.318,7.033 L109.318,10.818 L110.273,10.895 L110.273,11.410 L107.666,11.410 L107.666,10.895 L108.621,10.818 L108.621,5.668 L107.666,5.592 L107.666,5.070 L108.621,5.070 L109.230,5.070 L109.318,6.125 L109.318,6.201 C109.498,5.811 109.743,5.505 110.054,5.284 C110.364,5.064 110.732,4.953 111.158,4.953 C111.248,4.953 111.335,4.960 111.419,4.974 C111.503,4.987 111.572,5.002 111.627,5.018 L111.533,5.674 L111.012,5.639 ZM101.086,10.895 L102.041,10.818 L102.041,3.477 L101.086,3.400 L101.086,2.879 L103.699,2.879 L103.699,3.400 L102.744,3.477 L102.744,10.818 L103.699,10.895 L103.699,11.410 L101.086,11.410 L101.086,10.895 ZM97.412,10.895 L98.367,10.818 L98.367,3.477 L97.412,3.400 L97.412,2.879 L100.025,2.879 L100.025,3.400 L99.070,3.477 L99.070,10.818 L100.025,10.895 L100.025,11.410 L97.412,11.410 L97.412,10.895 ZM91.154,10.895 L91.963,10.848 L88.898,7.396 L87.727,7.396 L87.727,10.818 L88.682,10.895 L88.682,11.410 L86.074,11.410 L86.074,10.895 L87.029,10.818 L87.029,3.477 L86.074,3.400 L86.074,2.879 L88.682,2.879 L88.682,3.400 L87.727,3.477 L87.727,6.805 L88.893,6.805 L91.764,3.447 L90.943,3.400 L90.943,2.879 L93.328,2.879 L93.328,3.400 L92.578,3.471 L89.525,7.074 L92.818,10.824 L93.586,10.895 L93.586,11.410 L91.154,11.410 L91.154,10.895 ZM83.133,10.895 L83.877,10.836 L83.174,8.926 L79.342,8.926 L78.633,10.836 L79.377,10.895 L79.377,11.410 L77.279,11.410 L77.279,10.895 L77.906,10.848 L80.936,2.879 L81.598,2.879 L84.598,10.848 L85.236,10.895 L85.236,11.410 L83.133,11.410 L83.133,10.895 ZM81.287,3.787 L81.252,3.787 L79.576,8.299 L82.945,8.299 L81.287,3.787 ZM70.605,12.424 C70.441,12.853 70.228,13.219 69.967,13.520 C69.705,13.820 69.322,13.971 68.818,13.971 C68.736,13.971 68.637,13.962 68.520,13.944 C68.402,13.927 68.316,13.908 68.262,13.889 L68.344,13.303 C68.391,13.311 68.466,13.319 68.569,13.329 C68.673,13.339 68.746,13.344 68.789,13.344 C69.098,13.344 69.342,13.236 69.521,13.021 C69.701,12.807 69.859,12.527 69.996,12.184 L70.324,11.334 L68.074,5.645 L67.430,5.592 L67.430,5.070 L69.609,5.070 L69.609,5.592 L68.854,5.650 L70.400,9.693 L70.623,10.455 L70.658,10.455 L72.393,5.650 L71.619,5.592 L71.619,5.070 L73.811,5.070 L73.811,5.592 L73.166,5.645 L70.605,12.424 ZM61.512,10.895 L65.332,5.674 L62.203,5.674 L62.156,6.869 L61.529,6.869 L61.529,5.070 L66.217,5.070 L66.217,5.592 L62.373,10.818 L65.818,10.818 L65.871,9.617 L66.498,9.617 L66.498,11.410 L61.512,11.410 L61.512,10.895 ZM59.877,5.639 C59.435,5.639 59.073,5.763 58.790,6.011 C58.507,6.259 58.305,6.600 58.184,7.033 L58.184,10.818 L59.139,10.895 L59.139,11.410 L56.531,11.410 L56.531,10.895 L57.486,10.818 L57.486,5.668 L56.531,5.592 L56.531,5.070 L57.486,5.070 L58.096,5.070 L58.184,6.125 L58.184,6.201 C58.363,5.811 58.608,5.505 58.919,5.284 C59.229,5.064 59.598,4.953 60.023,4.953 C60.113,4.953 60.200,4.960 60.284,4.974 C60.368,4.987 60.437,5.002 60.492,5.018 L60.398,5.674 L59.877,5.639 ZM50.848,8.428 C50.848,9.139 51.038,9.735 51.419,10.218 C51.800,10.700 52.299,10.941 52.916,10.941 C53.350,10.941 53.721,10.881 54.029,10.760 C54.338,10.639 54.602,10.465 54.820,10.238 L55.119,10.719 C54.881,10.969 54.580,11.167 54.217,11.313 C53.854,11.460 53.420,11.533 52.916,11.533 C52.119,11.533 51.459,11.241 50.936,10.657 C50.412,10.073 50.150,9.330 50.150,8.428 L50.150,8.105 C50.150,7.199 50.411,6.447 50.933,5.850 C51.454,5.252 52.084,4.953 52.822,4.953 C53.600,4.953 54.211,5.199 54.656,5.691 C55.102,6.184 55.324,6.840 55.324,7.660 L55.324,8.258 L50.848,8.258 L50.848,8.428 ZM50.912,7.666 L54.627,7.666 L54.627,7.490 C54.627,6.939 54.465,6.479 54.141,6.107 C53.816,5.736 53.377,5.551 52.822,5.551 C52.307,5.551 51.872,5.749 51.519,6.146 C51.165,6.542 50.959,7.039 50.900,7.637 L50.912,7.666 ZM46.336,10.895 L47.291,10.818 L47.291,5.668 L46.336,5.592 L46.336,5.070 L47.988,5.070 L47.988,10.818 L48.943,10.895 L48.943,11.410 L46.336,11.410 L46.336,10.895 ZM47.291,2.270 L47.988,2.270 L47.988,3.254 L47.291,3.254 L47.291,2.270 ZM42.668,10.895 L43.623,10.818 L43.623,7.555 C43.623,6.828 43.487,6.315 43.216,6.014 C42.944,5.713 42.559,5.563 42.059,5.563 C41.566,5.563 41.165,5.692 40.854,5.952 C40.544,6.212 40.320,6.557 40.184,6.986 L40.184,10.818 L41.139,10.895 L41.139,11.410 L38.525,11.410 L38.525,10.895 L39.480,10.818 L39.480,5.668 L38.525,5.592 L38.525,5.070 L40.102,5.070 L40.166,6.178 C40.369,5.787 40.644,5.485 40.989,5.272 C41.335,5.060 41.744,4.953 42.217,4.953 C42.904,4.953 43.428,5.163 43.787,5.583 C44.146,6.003 44.326,6.658 44.326,7.549 L44.326,10.818 L45.281,10.895 L45.281,11.410 L42.668,11.410 L42.668,10.895 ZM36.709,10.818 L37.664,10.895 L37.664,11.410 L35.057,11.410 L35.057,10.895 L36.012,10.818 L36.012,7.309 L35.027,7.695 L35.027,7.057 L36.012,6.670 L36.012,2.867 L35.057,2.791 L35.057,2.270 L36.709,2.270 L36.709,6.395 L37.805,5.961 L37.805,6.600 L36.709,7.033 L36.709,10.818 ZM31.324,11.533 C30.473,11.533 29.791,11.235 29.279,10.640 C28.768,10.044 28.512,9.277 28.512,8.340 L28.512,8.146 C28.512,7.213 28.768,6.447 29.279,5.850 C29.791,5.252 30.469,4.953 31.312,4.953 C32.160,4.953 32.840,5.252 33.352,5.850 C33.863,6.447 34.119,7.213 34.119,8.146 L34.119,8.340 C34.119,9.277 33.864,10.044 33.354,10.640 C32.845,11.235 32.168,11.533 31.324,11.533 ZM33.416,8.146 C33.416,7.424 33.229,6.811 32.856,6.307 C32.483,5.803 31.969,5.551 31.312,5.551 C30.656,5.551 30.143,5.803 29.771,6.307 C29.400,6.811 29.215,7.424 29.215,8.146 L29.215,8.340 C29.215,9.074 29.400,9.691 29.771,10.191 C30.143,10.691 30.660,10.941 31.324,10.941 C31.977,10.941 32.488,10.691 32.859,10.191 C33.230,9.691 33.416,9.074 33.416,8.340 L33.416,8.146 ZM21.334,10.871 L26.355,3.477 L22.160,3.477 L22.113,4.678 L21.486,4.678 L21.486,2.879 L27.211,2.879 L27.211,3.389 L22.166,10.818 L26.725,10.818 L26.777,9.617 L27.404,9.617 L27.404,11.410 L21.334,11.410 L21.334,10.871 ZM23.906,0.922 L24.791,0.922 L24.791,1.906 L23.906,1.906 L23.906,0.922 ZM15.996,10.449 L16.799,10.449 L16.799,11.410 L15.996,11.410 L15.996,10.449 ZM12.229,10.895 L13.184,10.812 L13.184,7.701 C13.184,6.920 13.046,6.368 12.771,6.046 C12.495,5.724 12.111,5.563 11.619,5.563 C11.072,5.563 10.651,5.736 10.356,6.084 C10.061,6.432 9.879,6.875 9.809,7.414 C9.809,7.445 9.810,7.475 9.812,7.502 C9.813,7.529 9.814,7.564 9.814,7.607 L9.814,10.818 L10.770,10.895 L10.770,11.410 L8.156,11.410 L8.156,10.895 L9.111,10.818 L9.111,7.701 C9.111,6.936 8.972,6.388 8.692,6.058 C8.413,5.728 8.029,5.563 7.541,5.563 C7.041,5.563 6.645,5.688 6.354,5.940 C6.063,6.192 5.859,6.531 5.742,6.957 L5.742,10.818 L6.697,10.895 L6.697,11.410 L4.084,11.410 L4.084,10.895 L5.039,10.818 L5.039,5.668 L4.084,5.592 L4.084,5.070 L5.660,5.070 L5.725,6.119 C5.928,5.748 6.199,5.461 6.539,5.258 C6.879,5.055 7.283,4.953 7.752,4.953 C8.236,4.953 8.641,5.071 8.965,5.308 C9.289,5.544 9.521,5.904 9.662,6.389 C9.853,5.943 10.126,5.593 10.479,5.337 C10.833,5.081 11.264,4.953 11.771,4.953 C12.447,4.953 12.970,5.178 13.339,5.627 C13.708,6.076 13.893,6.772 13.893,7.713 L13.893,10.812 L14.848,10.895 L14.848,11.410 L12.229,11.410 L12.229,10.895 ZM0.451,10.895 L1.406,10.818 L1.406,5.668 L0.451,5.592 L0.451,5.070 L2.104,5.070 L2.104,10.818 L3.059,10.895 L3.059,11.410 L0.451,11.410 L0.451,10.895 ZM1.406,2.270 L2.104,2.270 L2.104,3.254 L1.406,3.254 L1.406,2.270 Z"/>
</svg>
