<svg
 xmlns="http://www.w3.org/2000/svg"
 xmlns:xlink="http://www.w3.org/1999/xlink"
 width="289px" height="50px">
<path fill-rule="evenodd"  fill="rgb(255, 255, 255)"
 d="M286.087,16.676 L286.233,14.918 L288.943,14.918 L288.943,19.410 L276.810,19.410 L276.810,17.079 L282.559,10.914 C283.389,9.962 283.979,9.158 284.329,8.503 C284.679,7.848 284.854,7.240 284.854,6.678 C284.854,5.930 284.653,5.317 284.250,4.841 C283.847,4.365 283.275,4.127 282.535,4.127 C281.713,4.127 281.088,4.406 280.661,4.963 C280.234,5.521 280.020,6.263 280.020,7.191 L276.553,7.191 L276.529,7.118 C276.488,5.515 277.015,4.157 278.110,3.047 C279.204,1.936 280.679,1.380 282.535,1.380 C284.366,1.380 285.806,1.856 286.856,2.809 C287.906,3.761 288.431,5.030 288.431,6.617 C288.431,7.691 288.136,8.684 287.546,9.596 C286.956,10.507 285.977,11.695 284.610,13.160 L281.448,16.615 L281.473,16.676 L286.087,16.676 ZM267.654,9.315 C267.133,9.315 266.702,9.417 266.360,9.620 C266.019,9.824 265.758,10.113 265.579,10.487 L265.579,16.908 L267.288,17.274 L267.288,19.410 L260.306,19.410 L260.306,17.274 L262.015,16.908 L262.015,8.717 L260.123,8.351 L260.123,6.202 L265.335,6.202 L265.494,8.131 C265.803,7.447 266.202,6.914 266.690,6.532 C267.178,6.149 267.744,5.958 268.387,5.958 C268.574,5.958 268.771,5.972 268.979,6.001 C269.186,6.029 269.359,6.064 269.498,6.104 L269.119,9.352 L267.654,9.315 ZM256.900,19.410 L253.348,19.410 L246.170,7.447 L246.097,7.459 L246.097,16.908 L248.001,17.274 L248.001,19.410 L240.640,19.410 L240.640,17.274 L242.532,16.908 L242.532,4.151 L240.640,3.785 L240.640,1.637 L242.532,1.637 L246.097,1.637 L253.274,13.600 L253.348,13.587 L253.348,4.151 L251.443,3.785 L251.443,1.637 L256.900,1.637 L258.804,1.637 L258.804,3.785 L256.900,4.151 L256.900,19.410 ZM229.019,18.733 C228.946,18.501 228.889,18.267 228.848,18.031 C228.425,18.519 227.910,18.914 227.304,19.215 C226.698,19.516 226.004,19.667 225.223,19.667 C223.929,19.667 222.901,19.315 222.140,18.611 C221.379,17.907 220.999,16.949 220.999,15.736 C220.999,14.499 221.495,13.543 222.488,12.867 C223.481,12.192 224.938,11.854 226.858,11.854 L228.677,11.854 L228.677,10.560 C228.677,9.925 228.494,9.433 228.128,9.083 C227.762,8.733 227.220,8.558 226.504,8.558 C226.097,8.558 225.735,8.605 225.418,8.698 C225.101,8.792 224.844,8.904 224.649,9.034 L224.417,10.450 L221.731,10.450 L221.744,7.521 C222.395,7.081 223.141,6.711 223.984,6.410 C224.826,6.109 225.743,5.958 226.736,5.958 C228.372,5.958 229.701,6.359 230.722,7.160 C231.743,7.962 232.254,9.103 232.254,10.584 L232.254,16.041 C232.254,16.245 232.256,16.436 232.260,16.615 C232.264,16.794 232.278,16.965 232.303,17.127 L233.389,17.274 L233.389,19.410 L229.275,19.410 C229.178,19.190 229.092,18.965 229.019,18.733 ZM228.677,13.795 L226.858,13.795 C226.102,13.795 225.528,13.972 225.137,14.326 C224.747,14.680 224.551,15.105 224.551,15.602 C224.551,16.049 224.696,16.399 224.985,16.651 C225.273,16.904 225.674,17.030 226.187,17.030 C226.724,17.030 227.212,16.914 227.652,16.682 C228.091,16.450 228.433,16.159 228.677,15.809 L228.677,13.795 ZM215.555,19.410 L212.576,19.410 L210.123,11.549 L210.049,11.549 L207.596,19.410 L204.629,19.410 L201.858,8.521 L200.528,8.351 L200.528,6.202 L206.509,6.202 L206.509,8.351 L205.105,8.619 L206.351,14.662 L206.424,14.662 L208.890,6.202 L211.282,6.202 L213.772,14.686 L213.846,14.686 L215.079,8.631 L213.663,8.351 L213.663,6.202 L219.644,6.202 L219.644,8.351 L218.313,8.521 L215.555,19.410 ZM193.057,19.667 C191.096,19.667 189.564,19.042 188.461,17.793 C187.358,16.544 186.807,14.926 186.807,12.940 L186.807,12.684 C186.807,10.715 187.358,9.101 188.461,7.844 C189.564,6.587 191.088,5.958 193.033,5.958 C194.986,5.958 196.514,6.585 197.616,7.838 C198.719,9.091 199.271,10.707 199.271,12.684 L199.271,12.940 C199.271,14.926 198.719,16.544 197.616,17.793 C196.514,19.042 194.994,19.667 193.057,19.667 ZM195.718,12.684 C195.718,11.512 195.503,10.556 195.071,9.815 C194.640,9.075 193.960,8.705 193.033,8.705 C192.105,8.705 191.429,9.075 191.006,9.815 C190.583,10.556 190.372,11.512 190.372,12.684 L190.372,12.940 C190.372,14.145 190.583,15.111 191.006,15.840 C191.429,16.568 192.113,16.932 193.057,16.932 C193.977,16.932 194.650,16.566 195.077,15.833 C195.505,15.101 195.718,14.137 195.718,12.940 L195.718,12.684 ZM181.497,19.410 L178.519,19.410 L176.065,11.549 L175.992,11.549 L173.538,19.410 L170.572,19.410 L167.801,8.521 L166.470,8.351 L166.470,6.202 L172.452,6.202 L172.452,8.351 L171.048,8.619 L172.293,14.662 L172.366,14.662 L174.832,6.202 L177.225,6.202 L179.715,14.686 L179.788,14.686 L181.021,8.631 L179.605,8.351 L179.605,6.202 L185.586,6.202 L185.586,8.351 L184.256,8.521 L181.497,19.410 ZM161.185,18.733 C161.111,18.501 161.054,18.267 161.014,18.031 C160.590,18.519 160.076,18.914 159.469,19.215 C158.863,19.516 158.169,19.667 157.388,19.667 C156.094,19.667 155.067,19.315 154.306,18.611 C153.545,17.907 153.165,16.949 153.165,15.736 C153.165,14.499 153.661,13.543 154.654,12.867 C155.647,12.192 157.103,11.854 159.024,11.854 L160.843,11.854 L160.843,10.560 C160.843,9.925 160.660,9.433 160.293,9.083 C159.927,8.733 159.386,8.558 158.670,8.558 C158.263,8.558 157.901,8.605 157.583,8.698 C157.266,8.792 157.010,8.904 156.814,9.034 L156.583,10.450 L153.897,10.450 L153.909,7.521 C154.560,7.081 155.307,6.711 156.149,6.410 C156.991,6.109 157.909,5.958 158.902,5.958 C160.538,5.958 161.866,6.359 162.887,7.160 C163.909,7.962 164.419,9.103 164.419,10.584 L164.419,16.041 C164.419,16.245 164.421,16.436 164.426,16.615 C164.430,16.794 164.444,16.965 164.468,17.127 L165.555,17.274 L165.555,19.410 L161.441,19.410 C161.343,19.190 161.258,18.965 161.185,18.733 ZM160.843,13.795 L159.024,13.795 C158.267,13.795 157.693,13.972 157.303,14.326 C156.912,14.680 156.717,15.105 156.717,15.602 C156.717,16.049 156.861,16.399 157.150,16.651 C157.439,16.904 157.840,17.030 158.353,17.030 C158.890,17.030 159.378,16.914 159.817,16.682 C160.257,16.450 160.599,16.159 160.843,15.809 L160.843,13.795 ZM149.246,19.667 C148.017,19.667 147.071,19.329 146.408,18.653 C145.745,17.978 145.413,16.908 145.413,15.443 L145.413,8.705 L143.472,8.705 L143.472,6.202 L145.413,6.202 L145.413,2.967 L148.965,2.967 L148.965,6.202 L151.285,6.202 L151.285,8.705 L148.965,8.705 L148.965,15.431 C148.965,15.943 149.071,16.310 149.283,16.529 C149.494,16.749 149.779,16.859 150.137,16.859 C150.381,16.859 150.595,16.849 150.778,16.828 C150.961,16.808 151.167,16.773 151.395,16.725 L151.700,19.300 C151.301,19.422 150.906,19.514 150.516,19.575 C150.125,19.636 149.702,19.667 149.246,19.667 ZM137.283,11.585 C138.919,11.911 140.131,12.389 140.921,13.020 C141.710,13.651 142.105,14.519 142.105,15.626 C142.105,16.814 141.594,17.785 140.573,18.537 C139.552,19.290 138.207,19.667 136.539,19.667 C135.521,19.667 134.587,19.518 133.737,19.221 C132.887,18.924 132.132,18.499 131.473,17.945 L131.436,14.979 L133.926,14.979 L134.415,16.700 C134.626,16.879 134.915,17.011 135.281,17.097 C135.647,17.182 136.030,17.225 136.429,17.225 C137.153,17.225 137.704,17.095 138.083,16.834 C138.461,16.574 138.650,16.220 138.650,15.772 C138.650,15.382 138.459,15.044 138.077,14.759 C137.694,14.475 136.990,14.222 135.965,14.002 C134.410,13.685 133.237,13.215 132.443,12.593 C131.650,11.970 131.253,11.122 131.253,10.047 C131.253,8.941 131.709,7.986 132.620,7.185 C133.531,6.383 134.830,5.982 136.514,5.982 C137.540,5.982 138.510,6.121 139.426,6.397 C140.341,6.674 141.059,7.028 141.580,7.459 L141.617,10.743 L139.224,10.743 L138.846,9.095 C138.602,8.900 138.294,8.737 137.924,8.607 C137.554,8.477 137.145,8.412 136.697,8.412 C136.071,8.412 135.574,8.552 135.208,8.833 C134.842,9.114 134.659,9.466 134.659,9.889 C134.659,10.287 134.834,10.619 135.184,10.884 C135.533,11.148 136.233,11.382 137.283,11.585 ZM124.148,47.274 L125.687,46.908 L125.687,41.549 C125.687,40.523 125.505,39.797 125.143,39.370 C124.781,38.943 124.242,38.729 123.526,38.729 C123.029,38.729 122.596,38.819 122.226,38.998 C121.855,39.177 121.544,39.429 121.292,39.754 L121.292,46.908 L122.830,47.274 L122.830,49.410 L116.019,49.410 L116.019,47.274 L117.740,46.908 L117.740,32.882 L115.835,32.516 L115.835,30.367 L121.292,30.367 L121.292,37.887 C121.707,37.276 122.216,36.802 122.818,36.465 C123.420,36.127 124.087,35.958 124.820,35.958 C126.203,35.958 127.288,36.416 128.073,37.331 C128.858,38.247 129.251,39.661 129.251,41.573 L129.251,46.908 L130.960,47.274 L130.960,49.410 L124.148,49.410 L124.148,47.274 ZM124.637,17.799 C124.222,18.409 123.731,18.873 123.166,19.190 C122.600,19.508 121.955,19.667 121.231,19.667 C119.603,19.667 118.340,19.073 117.441,17.884 C116.541,16.696 116.092,15.125 116.092,13.172 L116.092,12.916 C116.092,10.833 116.543,9.152 117.447,7.875 C118.350,6.597 119.620,5.958 121.255,5.958 C121.915,5.958 122.508,6.103 123.038,6.391 C123.567,6.680 124.030,7.089 124.429,7.618 L124.429,2.882 L122.525,2.516 L122.525,0.367 L124.429,0.367 L127.994,0.367 L127.994,16.908 L129.703,17.274 L129.703,19.410 L124.905,19.410 L124.637,17.799 ZM124.429,10.060 C124.185,9.637 123.874,9.309 123.495,9.077 C123.117,8.845 122.671,8.729 122.159,8.729 C121.288,8.729 120.653,9.116 120.254,9.889 C119.856,10.662 119.656,11.671 119.656,12.916 L119.656,13.172 C119.656,14.328 119.849,15.237 120.236,15.901 C120.623,16.564 121.255,16.896 122.134,16.896 C122.655,16.896 123.107,16.790 123.489,16.578 C123.872,16.367 124.185,16.061 124.429,15.663 L124.429,10.060 ZM109.244,49.667 C107.274,49.667 105.756,49.044 104.690,47.799 C103.624,46.554 103.091,44.955 103.091,43.001 L103.091,42.635 C103.091,40.690 103.639,39.091 104.733,37.838 C105.828,36.585 107.388,35.958 109.415,35.958 C110.481,35.958 111.437,36.117 112.283,36.434 C113.129,36.751 113.833,37.199 114.395,37.777 L114.444,41.305 L111.551,41.305 L110.965,39.242 C110.786,39.087 110.566,38.959 110.306,38.857 C110.045,38.756 109.748,38.705 109.415,38.705 C108.405,38.705 107.693,39.071 107.278,39.803 C106.863,40.536 106.656,41.480 106.656,42.635 L106.656,43.001 C106.656,44.182 106.847,45.132 107.229,45.852 C107.612,46.572 108.283,46.932 109.244,46.932 C109.878,46.932 110.387,46.747 110.770,46.377 C111.152,46.006 111.343,45.512 111.343,44.894 L114.566,44.894 L114.603,44.967 C114.635,46.302 114.134,47.419 113.101,48.318 C112.067,49.217 110.782,49.667 109.244,49.667 ZM108.279,19.667 C106.318,19.667 104.786,19.042 103.683,17.793 C102.581,16.544 102.029,14.926 102.029,12.940 L102.029,12.684 C102.029,10.715 102.581,9.101 103.683,7.844 C104.786,6.587 106.310,5.958 108.255,5.958 C110.208,5.958 111.736,6.585 112.839,7.838 C113.941,9.091 114.493,10.707 114.493,12.684 L114.493,12.940 C114.493,14.926 113.941,16.544 112.839,17.793 C111.736,19.042 110.216,19.667 108.279,19.667 ZM110.940,12.684 C110.940,11.512 110.725,10.556 110.293,9.815 C109.862,9.075 109.183,8.705 108.255,8.705 C107.327,8.705 106.652,9.075 106.229,9.815 C105.805,10.556 105.594,11.512 105.594,12.684 L105.594,12.940 C105.594,14.145 105.805,15.111 106.229,15.840 C106.652,16.568 107.335,16.932 108.279,16.932 C109.199,16.932 109.872,16.566 110.300,15.833 C110.727,15.101 110.940,14.137 110.940,12.940 L110.940,12.684 ZM97.464,48.733 C97.391,48.501 97.334,48.267 97.293,48.031 C96.870,48.519 96.355,48.914 95.749,49.215 C95.142,49.516 94.449,49.667 93.667,49.667 C92.374,49.667 91.346,49.315 90.585,48.611 C89.824,47.907 89.444,46.949 89.444,45.736 C89.444,44.499 89.940,43.543 90.933,42.867 C91.926,42.192 93.383,41.854 95.303,41.854 L97.122,41.854 L97.122,40.560 C97.122,39.925 96.939,39.433 96.573,39.083 C96.207,38.733 95.665,38.558 94.949,38.558 C94.542,38.558 94.180,38.605 93.863,38.698 C93.545,38.792 93.289,38.904 93.094,39.034 L92.862,40.450 L90.176,40.450 L90.188,37.521 C90.839,37.081 91.586,36.711 92.428,36.410 C93.271,36.109 94.188,35.958 95.181,35.958 C96.817,35.958 98.145,36.359 99.167,37.160 C100.188,37.962 100.699,39.103 100.699,40.584 L100.699,46.041 C100.699,46.245 100.701,46.436 100.705,46.615 C100.709,46.794 100.723,46.965 100.748,47.127 L101.834,47.274 L101.834,49.410 L97.720,49.410 C97.623,49.190 97.537,48.965 97.464,48.733 ZM97.122,43.795 L95.303,43.795 C94.546,43.795 93.973,43.972 93.582,44.326 C93.191,44.680 92.996,45.105 92.996,45.602 C92.996,46.049 93.140,46.399 93.429,46.651 C93.718,46.904 94.119,47.030 94.632,47.030 C95.169,47.030 95.657,46.914 96.097,46.682 C96.536,46.450 96.878,46.159 97.122,45.809 L97.122,43.795 ZM94.388,12.965 L91.385,12.965 L91.385,16.908 L93.289,17.274 L93.289,19.410 L85.928,19.410 L85.928,17.274 L87.820,16.908 L87.820,4.151 L85.928,3.785 L85.928,1.637 L87.820,1.637 L94.388,1.637 C96.422,1.637 98.027,2.160 99.203,3.205 C100.379,4.251 100.967,5.620 100.967,7.313 C100.967,9.014 100.379,10.381 99.203,11.415 C98.027,12.448 96.422,12.965 94.388,12.965 ZM96.640,5.219 C96.131,4.662 95.380,4.383 94.388,4.383 L91.385,4.383 L91.385,10.218 L94.388,10.218 C95.380,10.218 96.131,9.948 96.640,9.406 C97.148,8.865 97.403,8.176 97.403,7.337 C97.403,6.483 97.148,5.777 96.640,5.219 ZM80.826,36.202 L87.320,36.202 L87.320,38.351 L85.757,38.705 L83.377,41.976 L86.709,46.993 L88.064,47.274 L88.064,49.410 L81.961,49.410 L81.961,47.274 L82.693,47.152 L80.667,43.880 L79.141,43.880 L79.141,46.908 L80.679,47.274 L80.679,49.410 L73.868,49.410 L73.868,47.274 L75.589,46.908 L75.589,32.882 L73.685,32.516 L73.685,30.367 L79.141,30.367 L79.141,41.402 L79.935,41.402 L81.985,38.509 L80.826,38.351 L80.826,36.202 ZM74.307,18.733 C74.234,18.501 74.177,18.267 74.136,18.031 C73.713,18.519 73.198,18.914 72.592,19.215 C71.986,19.516 71.292,19.667 70.511,19.667 C69.217,19.667 68.189,19.315 67.428,18.611 C66.667,17.907 66.287,16.949 66.287,15.736 C66.287,14.499 66.783,13.543 67.776,12.867 C68.769,12.192 70.226,11.854 72.146,11.854 L73.965,11.854 L73.965,10.560 C73.965,9.925 73.782,9.433 73.416,9.083 C73.050,8.733 72.508,8.558 71.792,8.558 C71.385,8.558 71.023,8.605 70.706,8.698 C70.389,8.792 70.132,8.904 69.937,9.034 L69.705,10.450 L67.020,10.450 L67.032,7.521 C67.683,7.081 68.429,6.711 69.272,6.410 C70.114,6.109 71.031,5.958 72.024,5.958 C73.660,5.958 74.989,6.359 76.010,7.160 C77.031,7.962 77.542,9.103 77.542,10.584 L77.542,16.041 C77.542,16.245 77.544,16.436 77.548,16.615 C77.552,16.794 77.566,16.965 77.591,17.127 L78.677,17.274 L78.677,19.410 L74.563,19.410 C74.466,19.190 74.380,18.965 74.307,18.733 ZM73.965,13.795 L72.146,13.795 C71.390,13.795 70.816,13.972 70.425,14.326 C70.035,14.680 69.839,15.105 69.839,15.602 C69.839,16.049 69.984,16.399 70.273,16.651 C70.561,16.904 70.962,17.030 71.475,17.030 C72.012,17.030 72.500,16.914 72.940,16.682 C73.379,16.450 73.721,16.159 73.965,15.809 L73.965,13.795 ZM63.187,16.908 L64.908,17.274 L64.908,19.410 L57.901,19.410 L57.901,17.274 L59.622,16.908 L59.622,11.915 L58.072,12.428 L58.072,10.047 L59.622,9.535 L59.622,2.882 L57.718,2.516 L57.718,0.367 L63.187,0.367 L63.187,8.363 L64.969,7.765 L64.969,10.145 L63.187,10.743 L63.187,16.908 ZM50.418,19.667 C48.457,19.667 46.925,19.042 45.822,17.793 C44.719,16.544 44.168,14.926 44.168,12.940 L44.168,12.684 C44.168,10.715 44.719,9.101 45.822,7.844 C46.925,6.587 48.448,5.958 50.394,5.958 C52.347,5.958 53.874,6.585 54.977,7.838 C56.080,9.091 56.631,10.707 56.631,12.684 L56.631,12.940 C56.631,14.926 56.080,16.544 54.977,17.793 C53.874,19.042 52.355,19.667 50.418,19.667 ZM53.079,12.684 C53.079,11.512 52.863,10.556 52.432,9.815 C52.001,9.075 51.321,8.705 50.394,8.705 C49.466,8.705 48.790,9.075 48.367,9.815 C47.944,10.556 47.732,11.512 47.732,12.684 L47.732,12.940 C47.732,14.145 47.944,15.111 48.367,15.840 C48.790,16.568 49.474,16.932 50.418,16.932 C51.338,16.932 52.011,16.566 52.438,15.833 C52.865,15.101 53.079,14.137 53.079,12.940 L53.079,12.684 ZM36.819,17.274 L37.552,17.152 L35.525,13.880 L34.000,13.880 L34.000,16.908 L35.538,17.274 L35.538,19.410 L28.726,19.410 L28.726,17.274 L30.447,16.908 L30.447,2.882 L28.543,2.516 L28.543,0.367 L34.000,0.367 L34.000,11.402 L34.793,11.402 L36.844,8.509 L35.684,8.351 L35.684,6.202 L42.178,6.202 L42.178,8.351 L40.616,8.705 L38.235,11.976 L41.568,16.993 L42.923,17.274 L42.923,19.410 L36.819,19.410 L36.819,17.274 ZM16.165,17.311 L22.452,8.961 L19.217,8.961 L19.083,10.707 L16.348,10.707 L16.348,6.202 L26.919,6.202 L26.919,8.241 L20.584,16.676 L24.271,16.676 L24.417,14.918 L27.139,14.918 L27.139,19.410 L16.165,19.410 L16.165,17.311 ZM8.389,9.059 C10.350,9.604 11.838,10.324 12.851,11.219 C13.864,12.115 14.371,13.290 14.371,14.747 C14.371,16.269 13.768,17.469 12.564,18.348 C11.359,19.227 9.773,19.667 7.803,19.667 C6.395,19.667 5.124,19.443 3.989,18.995 C2.853,18.548 1.907,17.929 1.150,17.140 L1.150,13.429 L3.909,13.429 L4.288,15.956 C4.646,16.249 5.132,16.491 5.746,16.682 C6.361,16.873 7.046,16.969 7.803,16.969 C8.780,16.969 9.522,16.769 10.031,16.371 C10.540,15.972 10.794,15.439 10.794,14.771 C10.794,14.088 10.552,13.539 10.068,13.124 C9.583,12.708 8.735,12.318 7.522,11.952 C5.415,11.341 3.820,10.617 2.737,9.779 C1.655,8.941 1.114,7.793 1.114,6.336 C1.114,4.896 1.724,3.718 2.945,2.802 C4.166,1.887 5.699,1.417 7.547,1.393 C8.914,1.393 10.159,1.600 11.282,2.015 C12.405,2.430 13.349,2.984 14.114,3.675 L14.114,7.313 L11.441,7.313 L10.977,4.872 C10.668,4.676 10.216,4.505 9.622,4.359 C9.028,4.212 8.397,4.139 7.730,4.139 C6.753,4.139 5.998,4.345 5.466,4.756 C4.932,5.167 4.666,5.698 4.666,6.349 C4.666,6.951 4.945,7.445 5.502,7.832 C6.060,8.218 7.022,8.627 8.389,9.059 ZM6.387,38.351 L4.983,38.619 L6.229,44.662 L6.302,44.662 L8.768,36.202 L11.160,36.202 L13.650,44.686 L13.724,44.686 L14.957,38.631 L13.541,38.351 L13.541,36.202 L19.522,36.202 L19.522,38.351 L18.191,38.521 L15.433,49.410 L12.454,49.410 L10.000,41.549 L9.927,41.549 L7.474,49.410 L4.507,49.410 L1.736,38.521 L0.406,38.351 L0.406,36.202 L6.387,36.202 L6.387,38.351 ZM33.328,31.637 L37.857,44.735 L37.930,44.735 L42.496,31.637 L49.063,31.637 L49.063,33.785 L47.159,34.151 L47.159,46.908 L49.063,47.274 L49.063,49.410 L41.702,49.410 L41.702,47.274 L43.594,46.908 L43.594,44.112 L43.936,36.263 L43.863,36.251 L39.102,49.410 L36.709,49.410 L31.973,36.300 L31.900,36.312 L32.242,44.112 L32.242,46.908 L34.146,47.274 L34.146,49.410 L26.785,49.410 L26.785,47.274 L28.677,46.908 L28.677,34.151 L26.785,33.785 L26.785,31.637 L28.677,31.637 L33.328,31.637 ZM56.412,41.854 L58.230,41.854 L58.230,40.560 C58.230,39.925 58.047,39.433 57.681,39.083 C57.315,38.733 56.774,38.558 56.058,38.558 C55.651,38.558 55.289,38.605 54.971,38.698 C54.654,38.792 54.397,38.904 54.202,39.034 L53.970,40.450 L51.285,40.450 L51.297,37.521 C51.948,37.081 52.695,36.711 53.537,36.410 C54.379,36.109 55.297,35.958 56.290,35.958 C57.925,35.958 59.254,36.359 60.275,37.160 C61.296,37.962 61.807,39.103 61.807,40.584 L61.807,46.041 C61.807,46.245 61.809,46.436 61.813,46.615 C61.817,46.794 61.832,46.965 61.856,47.127 L62.942,47.274 L62.942,49.410 L58.829,49.410 C58.731,49.190 58.646,48.965 58.572,48.733 C58.499,48.501 58.442,48.267 58.401,48.031 C57.978,48.519 57.463,48.914 56.857,49.215 C56.251,49.516 55.557,49.667 54.776,49.667 C53.482,49.667 52.454,49.315 51.694,48.611 C50.933,47.907 50.552,46.949 50.552,45.736 C50.552,44.499 51.049,43.543 52.042,42.867 C53.034,42.192 54.491,41.854 56.412,41.854 ZM54.538,46.651 C54.827,46.904 55.228,47.030 55.740,47.030 C56.277,47.030 56.766,46.914 57.205,46.682 C57.645,46.450 57.986,46.159 58.230,45.809 L58.230,43.795 L56.412,43.795 C55.655,43.795 55.081,43.972 54.690,44.326 C54.300,44.680 54.104,45.105 54.104,45.602 C54.104,46.049 54.249,46.399 54.538,46.651 ZM69.607,38.131 C69.917,37.447 70.315,36.914 70.804,36.532 C71.292,36.149 71.858,35.958 72.500,35.958 C72.688,35.958 72.885,35.972 73.093,36.001 C73.300,36.029 73.473,36.064 73.611,36.104 L73.233,39.352 L71.768,39.315 C71.247,39.315 70.816,39.417 70.474,39.620 C70.132,39.824 69.872,40.113 69.693,40.487 L69.693,46.908 L71.402,47.274 L71.402,49.410 L64.419,49.410 L64.419,47.274 L66.128,46.908 L66.128,38.717 L64.236,38.351 L64.236,36.202 L69.449,36.202 L69.607,38.131 Z"/>
</svg>
