<svg
 xmlns="http://www.w3.org/2000/svg"
 xmlns:xlink="http://www.w3.org/1999/xlink"
 width="19px" height="19px">
<path fill-rule="evenodd"  fill="rgb(255, 255, 255)"
 d="M17.747,17.306 L13.304,12.603 C14.446,11.221 15.072,9.482 15.072,7.671 C15.072,3.441 11.691,0.000 7.535,0.000 C3.379,0.000 -0.002,3.441 -0.002,7.671 C-0.002,11.901 3.379,15.342 7.535,15.342 C9.095,15.342 10.582,14.863 11.853,13.954 L16.330,18.693 C16.517,18.891 16.769,19.000 17.038,19.000 C17.294,19.000 17.536,18.901 17.720,18.721 C18.110,18.338 18.123,17.704 17.747,17.306 ZM7.535,2.001 C10.607,2.001 13.106,4.545 13.106,7.671 C13.106,10.798 10.607,13.341 7.535,13.341 C4.463,13.341 1.964,10.798 1.964,7.671 C1.964,4.545 4.463,2.001 7.535,2.001 Z"/>
</svg>
